<svg xmlns="http://www.w3.org/2000/svg" width="1280.547" height="696.358" viewBox="0 0 1280.547 696.358"><g transform="translate(-0.001)"><ellipse cx="628.74" cy="41.624" rx="628.74" ry="41.624" transform="translate(15.665 613.111)" fill="#f2f2f2"/><path d="M611.818,324.894c-102.439,0-175.989,65.722-175.989,219.073,0,173.8,73.55,219.8,175.989,219.8s180.37-50.387,180.37-219.8C792.188,362.867,714.257,324.894,611.818,324.894Zm.673,381.187c-70.952,0-108.019-41.625-108.019-162,0-106.215,38.585-162.227,109.537-162.227s109.537,36.792,109.537,162.227c0,117.343-40.1,162-111.054,162Z" transform="translate(8.49 -125.831)" fill="#2f2e41"/><path d="M435.514,639.773H393.16V515.052a24.978,24.978,0,0,0-24.978-24.978h-9.924a24.978,24.978,0,0,0-24.978,24.978V639.773H213.814a14.259,14.259,0,0,1-12.608-20.921L327.648,379.538a24.978,24.978,0,0,0-11.419-34.255l-7.464-3.525a24.978,24.978,0,0,0-32.694,10.811L121.858,641.053a33.87,33.87,0,0,0-4,15.967h0a33.87,33.87,0,0,0,33.869,33.869H333.28v78.866a29.94,29.94,0,0,0,29.94,29.94h0a29.94,29.94,0,0,0,29.94-29.94V690.89h42.354a25.559,25.559,0,0,0,25.559-25.559h0a25.559,25.559,0,0,0-25.559-25.558Z" transform="translate(-52.536 -123.055)" fill="#d063ff"/><path d="M1093.509,639.773h-42.354V515.052a24.978,24.978,0,0,0-24.975-24.978h-9.924a24.978,24.978,0,0,0-24.978,24.978V639.773H871.81A14.259,14.259,0,0,1,859.2,618.853L985.644,379.538a24.978,24.978,0,0,0-11.419-34.255l-7.464-3.525a24.978,24.978,0,0,0-32.694,10.811L779.855,641.053a33.87,33.87,0,0,0-4,15.967h0a33.869,33.869,0,0,0,33.869,33.869H991.276v78.866a29.94,29.94,0,0,0,29.94,29.94h0a29.94,29.94,0,0,0,29.94-29.94V690.89h42.354a25.559,25.559,0,0,0,25.559-25.559h0a25.559,25.559,0,0,0-25.56-25.558Z" transform="translate(73.749 -123.055)" fill="#d063ff"/><path d="M445.317,627.52H402.963V502.8a24.978,24.978,0,0,0-24.978-24.978h-9.924A24.978,24.978,0,0,0,343.083,502.8V627.52H223.616A14.259,14.259,0,0,1,211.008,606.6L337.45,367.285a24.978,24.978,0,0,0-11.419-34.255l-7.464-3.525a24.978,24.978,0,0,0-32.694,10.811L131.661,628.8a33.869,33.869,0,0,0-4,15.967h0a33.869,33.869,0,0,0,33.869,33.869H343.082V757.5a29.94,29.94,0,0,0,29.94,29.94h0a29.94,29.94,0,0,0,29.94-29.94V678.637h42.354a25.559,25.559,0,0,0,25.559-25.559h0a25.558,25.558,0,0,0-25.557-25.558Z" transform="translate(-50.654 -125.406)" fill="none" stroke="#3f3d56" stroke-miterlimit="10" stroke-width="1"/><path d="M1111.889,627.52h-42.354V502.8a24.978,24.978,0,0,0-24.978-24.978h-9.923a24.978,24.978,0,0,0-24.978,24.978V627.52H890.19A14.259,14.259,0,0,1,877.582,606.6l126.442-239.315a24.978,24.978,0,0,0-11.419-34.255l-7.464-3.525a24.978,24.978,0,0,0-32.694,10.811L798.234,628.8a33.87,33.87,0,0,0-4,15.967h0A33.869,33.869,0,0,0,828.1,678.637h181.553V757.5a29.94,29.94,0,0,0,29.94,29.94h0a29.94,29.94,0,0,0,29.94-29.94V678.637h42.354a25.559,25.559,0,0,0,25.558-25.559h0a25.558,25.558,0,0,0-25.56-25.558Z" transform="translate(77.277 -125.406)" fill="none" stroke="#3f3d56" stroke-miterlimit="10" stroke-width="1"/><path d="M631.423,313.866c-102.439,0-175.989,65.722-175.989,219.073,0,173.8,73.55,219.8,175.989,219.8s180.37-50.387,180.37-219.8C811.793,351.84,733.862,313.866,631.423,313.866Zm.673,381.187c-70.952,0-108.019-41.625-108.019-162,0-106.214,38.585-162.227,109.537-162.227S743.15,407.616,743.15,533.051c0,117.343-40.1,162-111.054,162Z" transform="translate(12.253 -127.948)" fill="none" stroke="#3f3d56" stroke-miterlimit="10" stroke-width="1"/><circle cx="15.377" cy="15.377" r="15.377" transform="translate(546.187 6.376)" fill="#2f2e41"/><ellipse cx="43.131" cy="55.883" rx="43.131" ry="55.883" transform="translate(555.938 0)" fill="#2f2e41"/><path d="M572.606,245.134c-21.607,0-39.5-20.585-42.642-47.444a72.714,72.714,0,0,0-.489,8.439c0,30.863,19.311,55.883,43.131,55.883s43.131-25.02,43.131-55.883a72.674,72.674,0,0,0-.489-8.439C612.109,224.549,594.213,245.134,572.606,245.134Z" transform="translate(26.463 -150.245)" opacity="0.1"/><path d="M649.805,344.57c-.926,3.806-4.92,6.855-9.343,8.985-9.3,4.478-20.77,5.814-31.9,6.263a53.844,53.844,0,0,1-8.516-.157,24.478,24.478,0,0,1-14.6-6.712,2,2,0,0,1,.052-3.39c5.923-6.507,15.808-10.5,25.765-13.369,7.55-2.178,20.717-7.82,28.952-7.059C648.194,329.869,650.974,339.764,649.805,344.57Z" transform="translate(37.031 -125.032)" fill="#3f3d56"/><path d="M649.805,344.57c-.926,3.806-4.92,6.855-9.343,8.985-9.3,4.478-20.77,5.814-31.9,6.263a53.844,53.844,0,0,1-8.516-.157,24.478,24.478,0,0,1-14.6-6.712,2,2,0,0,1,.052-3.39c5.923-6.507,15.808-10.5,25.765-13.369,7.55-2.178,20.717-7.82,28.952-7.059C648.194,329.869,650.974,339.764,649.805,344.57Z" transform="translate(37.031 -125.032)" opacity="0.1"/><path d="M540.513,328.215a23.563,23.563,0,0,0-1.429,17.968,31.394,31.394,0,0,0,10.524,14.9c12.032,9.645,28.592,10.972,44.012,10.838a339.286,339.286,0,0,0,40.412-2.77,48.316,48.316,0,0,0,13.113-3.045c5.033-2.177,9.455-6.171,11.247-11.354s.52-11.529-3.735-14.988c-3.739-3.039-8.895-3.457-13.7-3.746l-27.519-1.654c2.719-2.751,6.339-4.308,9.65-6.308,4.393-2.654,7.311-7.109,10.5-11.126a153.761,153.761,0,0,1,16.018-16.469c.9,5.138,4.146,9.357,7.971,12.9s8.234,6.4,12.21,9.774c9.629,8.175,16.563,19.27,26.69,26.819A52.241,52.241,0,0,0,715.6,340.4l-3.936-7.129a4.7,4.7,0,0,0-1.483-1.851c-1.114-.685-2.55-.332-3.844-.526-3.458-.518-4.968-4.51-6.324-7.732-3.725-8.846-10.856-15.709-16.946-23.128a116.823,116.823,0,0,1-11.914-17.548c-2.046-3.7-3.919-7.546-6.7-10.731s-6.667-5.689-10.892-5.7c-3.733-.008-7.177,1.887-10.387,3.794a274.7,274.7,0,0,0-28.165,19.189c-4.7,3.649-9.372,7.5-14.886,9.743-2.321.942-4.768,1.586-7,2.732-3.9,2.008-6.862,5.4-10.049,8.42C571.716,320.689,556.152,327.657,540.513,328.215Z" transform="translate(28.087 -137.124)" fill="#3f3d56"/><path d="M594.077,261.865a28.338,28.338,0,0,1-2.066,9.575,11.973,11.973,0,0,1-6.875,6.642,14.751,14.751,0,0,1-6.7.218,12.971,12.971,0,0,1-5.461-1.86c-2.58-1.774-3.867-4.94-4.336-8.038s-.259-6.256-.559-9.373a51.181,51.181,0,0,0-1.433-7.456c-.2-.814-.409-1.624-.611-2.434s-.394-1.62-.574-2.43c-.165-.761-.319-1.526-.45-2.3-.109-.649-.206-1.3-.278-1.958a21.957,21.957,0,0,0-.964-5.735,17.407,17.407,0,0,0-2.01-3.4c-.341-.488-.671-.975-.975-1.481a7.02,7.02,0,0,1-1.159-4.467,3.9,3.9,0,0,1,.176-.716c.03-.09.064-.18.1-.266a2.148,2.148,0,0,0,1.466-1.37,4.092,4.092,0,0,0-.176-2.119,13.491,13.491,0,0,0-1.144-2.727c-.315-.57-1.384-1.6-1.391-2.25-.015-1.313,2.55-2.37,3.589-2.888a20.019,20.019,0,0,1,10.246-2.078c2.269.154,4.729.851,5.982,2.753,1.125,1.714.975,3.934,1.455,5.926a1.753,1.753,0,0,0,.356.791,1.6,1.6,0,0,0,.882.405,5.422,5.422,0,0,0,1.688.068h0a3.49,3.49,0,0,0,.443-.064,5.909,5.909,0,0,0,2.423-1.046q.7-.186,1.406-.3a.305.305,0,0,0,.056-.011c1.879,5.93,2.123,12.287,3.661,18.325.761,3,1.853,5.971,2.006,9.061.011.135.015.274.019.413.023.994-.056,2-.015,2.985a8.315,8.315,0,0,0,.15,1.328,18.59,18.59,0,0,0,.626,2.078l.011.034c.071.217.139.439.2.66.041.161.079.319.109.48l0,.011A17.807,17.807,0,0,1,594.077,261.865Z" transform="translate(32.064 -147.323)" fill="#fbbebe"/><circle cx="22.128" cy="22.128" r="22.128" transform="translate(577.692 31.505)" fill="#fbbebe"/><path d="M704.827,320.171a36.287,36.287,0,0,0-6.241-16.81q.861,5.119,1.725,10.235a3.831,3.831,0,0,1-4.013-1.234,12.319,12.319,0,0,1-2.1-3.9,80.419,80.419,0,0,0-9.785-17.564c-14.087-1.174-28.013-7.014-40.4-13.821s-23.989-14.961-36.215-22.053a51.932,51.932,0,0,0-6.608-3.376c-3.826-1.534-8.12-2.329-11.747-4.133-.244-.12-.487-.248-.727-.379a14.987,14.987,0,0,1-2.318-1.556,12.3,12.3,0,0,1-1.11-1.02,24.258,24.258,0,0,1-4.242-7.1c-1.946-4.306-2.64-9.5-4.583-13.806a13.353,13.353,0,0,1,2.982-2.1h0c.158-.083.315-.161.476-.236a14.229,14.229,0,0,1,2.389-.874q.7-.186,1.406-.3a.3.3,0,0,0,.056-.011,13.785,13.785,0,0,1,6.545.518c3.083,1.043,5.682,3.124,8.274,5.093a135.883,135.883,0,0,1,12.1,9.594c2.138,2.048,4.088,4.3,6.387,6.158a50.222,50.222,0,0,0,6.027,3.994q18.661,11.117,37.325,22.229c4.212,2.509,8.427,5.018,12.546,7.674,6.256,4.036,12.287,8.409,18.314,12.778q5.328,3.859,10.652,7.722a11.6,11.6,0,0,1,3.019,2.79,10.1,10.1,0,0,1,1.339,4.092A37.41,37.41,0,0,1,704.827,320.171Z" transform="translate(35.48 -145.973)" fill="#fbbebe"/><path d="M604.278,277.125c-1.493,6.695-8.259,10.742-11.8,16.622-4.4,7.3-2.6,15.782-.953,24.142q-4.523,3.9-9.05,7.8c-1.665,1.429-3.33,2.865-5.123,4.129a68.356,68.356,0,0,1-8.176,4.7q-4.006,2.059-8.011,4.122a38.289,38.289,0,0,1-7.842,3.323c-5.262,1.35-10.85.405-16.056-1.159a7.256,7.256,0,0,1-1.755-.716,2.854,2.854,0,0,1-.833-.754,4.661,4.661,0,0,1-.529-3.027c.529-8.761,2.67-17.339,4.8-25.853a101.626,101.626,0,0,1,4.587-14.991,101.4,101.4,0,0,1,6.455-12.1,81.486,81.486,0,0,1,9.451-13.723,22.026,22.026,0,0,0,4.381-5.648c1.331-3.038.818-6.522,1.088-9.83a20.442,20.442,0,0,1,1.947-7.16v0a20.374,20.374,0,0,1,2.078-3.435q.546,1.271,1.091,2.539.36.833.713,1.662.461,1.069.915,2.13,1.311,3.049,2.618,6.095a25.738,25.738,0,0,0,3.976,7.085,7.747,7.747,0,0,0,13.258-1.016,25.34,25.34,0,0,0,2.708-7.167,22.9,22.9,0,0,0,.3-9.339c-.9-5.971-3.443-12.069-5.288-17.616a17.811,17.811,0,0,1-1.286-5.806,3.992,3.992,0,0,1,.068-.668c.011-.056.023-.116.034-.172a14.238,14.238,0,0,1,2.389-.874q.7-.186,1.407-.3,2.436,13.187,4.879,26.374c.038.206.079.413.116.623.233,1.26.469,2.52.731,3.777.236,1.14.491,2.277.776,3.406l.011.034c.1.383.2.761.3,1.14l0,.011c.289,1.035.611,2.063.975,3.075C601.848,264.647,605.693,270.79,604.278,277.125Z" transform="translate(27.349 -145.943)" fill="#d063ff"/><path d="M668.323,350.279a7.846,7.846,0,0,0,.727,3.747c1.385,2.531,4.708,3.107,7.583,3.343a224.536,224.536,0,0,0,50.378-1.535,5.825,5.825,0,0,0,2.564-.8c2.372-1.663.91-5.715-1.68-7.013s-5.663-.985-8.5-1.547a26.8,26.8,0,0,1-7.96-3.452q-8.644-4.966-17.036-10.355c-3.331-2.139-7.262-4.422-11.013-3.154C673.221,332.955,668.256,339.318,668.323,350.279Z" transform="translate(53.109 -125.014)" fill="#3f3d56"/><path d="M575.684,243.956v0c-.026.158-.053.311-.086.465-.041.255-.09.514-.139.769-.465,2.382-1.035,4.752-1.691,7.107-1.8,6.507-4.212,12.909-6.6,19.218q-9.631,25.372-19.266,50.749c-1.62,4.261-3.237,8.525-5.078,12.7-.615,1.391-1.249,2.794-1.879,4.212-2.258,5.074-4.426,10.314-5.146,15.715a32.719,32.719,0,0,0-.229,10.775c.72,3.54,2.869,7,6.233,8.307,1.643.641,3.994,1.5,3.544,3.207-.244.938-1.309,1.4-2.265,1.553a8.716,8.716,0,0,1-7.111-2.048c-1.8-1.594-3.177-4.073-5.566-4.339-1.654-.18-3.177.81-4.692,1.5-6.181,2.824-13.382.848-19.874-1.159.51-2.629,3.151-4.362,5.772-4.887s5.333-.154,8.007-.225a4.183,4.183,0,0,0,2.434-.626,4.418,4.418,0,0,0,1.313-2.243,94.107,94.107,0,0,0,3.829-15.67c.863-5.562,1.223-11.21,2.453-16.7.956-4.287,2.434-8.439,3.7-12.647a267.8,267.8,0,0,0,6.031-26.314,93.025,93.025,0,0,0,1.7-11.165c.214-3.113.113-6.241.413-9.342A72.582,72.582,0,0,1,544,260.954q1.722-6.374,3.439-12.741c1.7-6.282,3.522-12.808,7.827-17.691a16.641,16.641,0,0,1,11.953-5.708,11.778,11.778,0,0,1,2.539.274c.139.034.277.068.416.105a10.293,10.293,0,0,1,2.592,1.073c1.328-.844,2-.548,2.884.754a8.312,8.312,0,0,1,1.05,4.523A62.5,62.5,0,0,1,575.684,243.956Z" transform="translate(21.926 -145.039)" fill="#fbbebe"/><path d="M567.258,249l-.056.056-.3.3-3.016,3.012-1.478-6.207-5.067-21.281a11.78,11.78,0,0,1,2.539.274,3.914,3.914,0,0,1,.176-.716l.24.821,1.718,5.843,3.252,11.094.536,1.827v0Z" transform="translate(31.811 -145.111)" fill="#d063ff"/><path d="M589.446,190.5a15,15,0,0,1-4.411,10.6,14.676,14.676,0,0,1-1.621,1.4,14.932,14.932,0,0,1-8.982,3.009H556.439a15.007,15.007,0,1,1,0-30.013h17.993A15.053,15.053,0,0,1,589.446,190.5Z" transform="translate(28.758 -154.503)" fill="#2f2e41"/><circle cx="15.377" cy="15.377" r="15.377" transform="translate(619.698 6.376)" fill="#2f2e41"/><path d="M595.645,163.234c-.189,0-.376.008-.563.014a15.373,15.373,0,0,1,0,30.726c.187.007.374.014.563.014a15.377,15.377,0,0,0,0-30.754Z" transform="translate(39.055 -156.858)" opacity="0.1"/><path d="M536.671,163.234c.189,0,.375.008.563.014a15.373,15.373,0,0,0,0,30.726c-.187.007-.374.014-.562.014a15.377,15.377,0,1,1,0-30.754Z" transform="translate(24.893 -156.858)" opacity="0.1"/><path d="M582.445,198.159a14.932,14.932,0,0,1-8.982,3.009H555.469a14.933,14.933,0,0,1-8.982-3.009Z" transform="translate(29.728 -150.155)" opacity="0.1"/><path d="M674.14,292.671s3.876,11.17,7.424,8.2l-2.828-14.6Z" transform="translate(54.228 -133.245)" fill="#fbbebe"/><path d="M1072.551,585.183a24.807,24.807,0,1,0,3.3-47.576l.621,12.768-6.041-10.942a24.713,24.713,0,0,0-12.734,13.972,24.334,24.334,0,0,0-1.427,6.71,24.8,24.8,0,0,0,16.277,25.067Z" transform="translate(127.557 -85.112)" fill="#6757b8"/><path d="M1095.752,736.705c-2.132-10.859,7.108-20.485,16.235-26.743s19.792-12.405,22.906-23.024c4.476-15.261-8.856-29.238-19.233-41.29a149.343,149.343,0,0,1-19.695-29.271c-2.159-4.21-4.143-8.612-4.711-13.309-.818-6.765,1.355-13.5,3.545-19.949q10.941-32.244,23.4-63.947" transform="translate(134.248 -88.545)" fill="none" stroke="#3f3d56" stroke-miterlimit="10" stroke-width="1"/><path d="M1073.4,582.425a24.807,24.807,0,1,0,3.3-47.576l.621,12.768-6.041-10.942a24.714,24.714,0,0,0-12.734,13.972,24.324,24.324,0,0,0-1.427,6.71A24.8,24.8,0,0,0,1073.4,582.425Z" transform="translate(127.719 -85.641)" fill="#bc71e7" stroke="#3f3d56" stroke-miterlimit="10" stroke-width="1"/><path d="M1092.69,518.1a24.778,24.778,0,0,1,17.855-15.731l2.043,12.138,3.787-12.748A24.8,24.8,0,1,1,1092.69,518.1Z" transform="translate(134.272 -91.886)" fill="#bc71e7"/><path d="M1093.83,514.426a24.778,24.778,0,0,1,17.855-15.73l2.042,12.138,3.787-12.748a24.8,24.8,0,1,1-23.684,16.341Z" transform="translate(134.49 -92.592)" fill="none" stroke="#3f3d56" stroke-miterlimit="10" stroke-width="1"/><path d="M1110.673,633.239a24.8,24.8,0,0,0,21.954-44.128l-2.909,9.8-2.063-12.281a.421.421,0,0,0-.063-.024,24.805,24.805,0,0,0-16.918,46.637Z" transform="translate(134.87 -75.89)" fill="#bc71e7"/><path d="M1111.673,629.514a24.8,24.8,0,0,0,21.954-44.128l-2.91,9.8-2.063-12.281a.428.428,0,0,0-.063-.024,24.805,24.805,0,1,0-16.918,46.637Z" transform="translate(135.062 -76.605)" fill="none" stroke="#3f3d56" stroke-miterlimit="10" stroke-width="1"/><path d="M1086.441,664.735a24.794,24.794,0,1,0,4.781-19.425l11.052,16.635-15.1-8.829A24.573,24.573,0,0,0,1086.441,664.735Z" transform="translate(133.285 -66.19)" fill="#bc71e7"/><path d="M1087.291,661.978a24.794,24.794,0,1,0,4.78-19.425l11.052,16.635-15.1-8.829A24.575,24.575,0,0,0,1087.291,661.978Z" transform="translate(133.448 -66.72)" fill="none" stroke="#3f3d56" stroke-miterlimit="10" stroke-width="1"/><path d="M73.79,633.224a16.3,16.3,0,1,0,2.17-31.258l.408,8.389L72.4,603.165a16.237,16.237,0,0,0-8.367,9.18,15.981,15.981,0,0,0-.937,4.409,16.3,16.3,0,0,0,10.695,16.47Z" transform="translate(-63.054 -72.724)" fill="#6757b8"/><path d="M89.032,732.776c-1.4-7.134,4.67-13.459,10.667-17.57s13-8.151,15.05-15.127c2.941-10.027-5.819-19.21-12.636-27.129a98.12,98.12,0,0,1-12.94-19.231,26.473,26.473,0,0,1-3.1-8.744c-.538-4.445.89-8.867,2.329-13.107q7.188-21.185,15.371-42.014" transform="translate(-58.658 -74.979)" fill="none" stroke="#3f3d56" stroke-miterlimit="10" stroke-width="1"/><path d="M74.353,631.412a16.3,16.3,0,1,0,2.17-31.258l.408,8.389-3.969-7.189a16.237,16.237,0,0,0-8.367,9.18,15.983,15.983,0,0,0-.937,4.409,16.3,16.3,0,0,0,10.695,16.469Z" transform="translate(-62.946 -73.071)" fill="#bc71e7" stroke="#3f3d56" stroke-miterlimit="10" stroke-width="1"/><path d="M87.024,589.152a16.28,16.28,0,0,1,11.731-10.335l1.342,7.975,2.488-8.376a16.3,16.3,0,1,1-15.561,10.736Z" transform="translate(-58.641 -77.175)" fill="#6757b8"/><path d="M87.775,586.736A16.28,16.28,0,0,1,99.506,576.4l1.342,7.975L103.336,576a16.3,16.3,0,1,1-15.561,10.736Z" transform="translate(-58.497 -77.638)" fill="#bc71e7" stroke="#3f3d56" stroke-miterlimit="10" stroke-width="1"/><path d="M98.842,664.8A16.3,16.3,0,0,0,113.266,635.8l-1.912,6.437L110,634.172a.281.281,0,0,0-.041-.016A16.3,16.3,0,1,0,98.842,664.8Z" transform="translate(-58.248 -66.665)" fill="#6757b8"/><path d="M99.492,662.351a16.3,16.3,0,0,0,14.424-28.993L112,639.794l-1.356-8.069a.3.3,0,0,0-.041-.016,16.3,16.3,0,0,0-11.115,30.641Z" transform="translate(-58.123 -67.134)" fill="#bc71e7" stroke="#3f3d56" stroke-miterlimit="10" stroke-width="1"/><path d="M82.916,685.491a16.29,16.29,0,1,0,3.141-12.763l7.262,10.93-9.922-5.8a16.144,16.144,0,0,0-.48,7.634Z" transform="translate(-59.29 -60.292)" fill="#6757b8"/><path d="M83.479,683.679a16.29,16.29,0,1,0,3.141-12.763l7.262,10.93-9.922-5.8A16.145,16.145,0,0,0,83.479,683.679Z" transform="translate(-59.182 -60.64)" fill="#bc71e7" stroke="#3f3d56" stroke-miterlimit="10" stroke-width="1"/><ellipse cx="20.263" cy="26.222" rx="20.263" ry="26.222" transform="translate(552.988 354.14)" fill="#2f2e41"/><ellipse cx="20.263" cy="26.222" rx="20.263" ry="26.222" transform="translate(663.241 354.736)" fill="#2f2e41"/><path d="M635.4,545.955c0,11.848-16.544,21.455-36.95,21.455S561.5,557.8,561.5,545.955c0-10.262,12.408-18.844,28.988-20.942a59.73,59.73,0,0,1,7.962-.513,60.426,60.426,0,0,1,13.266,1.43C625.566,529.018,635.4,536.825,635.4,545.955Z" transform="translate(32.61 -87.522)" fill="#2f2e41"/><ellipse cx="20.263" cy="26.222" rx="20.263" ry="26.222" transform="translate(557.756 348.18)" fill="none" stroke="#3f3d56" stroke-miterlimit="10" stroke-width="1"/><ellipse cx="20.263" cy="26.222" rx="20.263" ry="26.222" transform="translate(668.009 348.776)" fill="none" stroke="#3f3d56" stroke-miterlimit="10" stroke-width="1"/><ellipse cx="36.95" cy="21.455" rx="36.95" ry="21.455" transform="translate(598.877 431.019)" fill="none" stroke="#3f3d56" stroke-miterlimit="10" stroke-width="1"/><path d="M607.647,527.814a5.884,5.884,0,0,1-1.573,4.043,5.171,5.171,0,0,1-3.79,1.678H590.364A5.559,5.559,0,0,1,585,527.814a5.847,5.847,0,0,1,.977-3.267A56.063,56.063,0,0,1,593.94,524a56.814,56.814,0,0,1,13.266,1.526A6.036,6.036,0,0,1,607.647,527.814Z" transform="translate(37.119 -87.618)" fill="#fff"/><circle cx="5.96" cy="5.96" r="5.96" transform="translate(572.059 361.291)" fill="#fff"/><circle cx="5.96" cy="5.96" r="5.96" transform="translate(682.908 361.291)" fill="#fff"/><circle cx="5.96" cy="5.96" r="5.96" transform="translate(688.868 417.312)" fill="#6c63ff" opacity="0.3"/><circle cx="5.96" cy="5.96" r="5.96" transform="translate(543.453 417.312)" fill="#6c63ff" opacity="0.3"/></g></svg>