<svg xmlns="http://www.w3.org/2000/svg" width="408.166" height="301.555" viewBox="0 0 408.166 301.555"><defs><style>.a{fill:#e6e6e6;}.b{fill:#707070;}.c{fill:#ffb9b9;}.d,.e{fill:#6c63ff;}.d{opacity:0.98;}.f{fill:#2f2e41;}.g{opacity:0.1;}.h{fill:#f2f2f2;}.i{fill:#fff;}.j{opacity:0.86;}</style></defs><ellipse class="a" cx="66.483" cy="8.628" rx="66.483" ry="8.628" transform="translate(268.991 284.299)"/><path class="b" d="M893.386,684.227s3.572,12.305,5.954,15.481,4.366,8.336,3.175,9.13-3.573,10.32-.4,10.717,10.32-10.32,10.717-13.893,1.985-16.275,1.985-16.275,2.779-11.114-1.588-11.908-11.114-1.191-11.114-1.191Z" transform="translate(-554.244 -421.341)"/><path class="b" d="M847.21,721.989s-5.16,13.5-6.351,14.29-5.557,7.938,3.176,7.938,13.5-2.382,13.5-2.382l2.778-3.175s0-8.336-.794-9.526,0-7.145,0-7.145Z" transform="translate(-524.739 -446.003)"/><path d="M776.827,447.085s-6.351,42.869-.794,56.762,11.114,17.862,11.114,17.862l42.075,39.3s13.1-6.748,11.908-11.114c0,0-2.778-1.588-3.175-2.779s-5.557-1.588-5.557-1.588-2.382-2.779-2.382-4.366-20.641-29.77-27.389-31.755c0,0-3.572-4.366-3.175-5.16s-1.191-3.572-1.191-3.572l3.969-15.481,25.007-3.969s10.32-36.518,1.588-39.3S776.827,447.085,776.827,447.085Z" transform="translate(-489.684 -294.547)"/><path d="M860.255,514.184l.794,6.351s0,16.671-.794,18.259-1.191,3.969,0,5.557,3.176,5.557,2.382,7.145,1.588,46.442-1.588,49.617-1.985,7.145-1.588,7.542-.4,1.985-.4,1.985-16.274,2.779-15.083,0,1.191-4.366,1.985-5.16,0-1.985,0-1.985,1.191-12.7,0-13.5-4.764-38.9-4.764-39.3-1.191-1.191-1.191-2.778,0-6.748-1.985-7.542-1.588-20.244-1.588-20.244Z" transform="translate(-523.495 -333.86)"/><path class="c" d="M804.192,206.358s1.588,11.908,6.351,14.29,7.939,3.572,7.939,3.572l-3.969,13.892-1.588,11.908H794.665l-9.923-7.939,3.176-13.1,1.588-2.382s1.985-8.733.4-11.511S804.192,206.358,804.192,206.358Z" transform="translate(-495.613 -167.74)"/><path class="d" d="M780.9,253.482l2.778,5.16s1.985-7.145,4.763-8.336,9.526-3.175,9.526-4.763-.4-5.557,1.191-5.557,17.068,4.763,19.45,6.351a6.256,6.256,0,0,1,2.778,3.175l-4.366,45.648s6.351,21.435,4.366,29.77-3.572,9.526-8.336,10.717-1.985-2.779-15.878,1.191a72.615,72.615,0,0,1-25.8,2.779,11.106,11.106,0,0,0-5.954,1.985c-.794.4-.4-1.985,2.381-5.557s1.588-9.527,1.588-9.527-3.176-10.32-1.191-14.29,4.763-9.13,2.382-10.717-5.557-13.5-5.557-13.5l-8.732-30.961,17.862-12.3s-.794,5.557,1.985,6.748S780.9,253.482,780.9,253.482Z" transform="translate(-480.258 -185.888)"/><path class="d" d="M754.016,276.2h-2.382s-3.969,6.748-3.969,11.511,1.985,31.755,1.985,31.755l11.511,11.908,2.779-9.129L764.733,302Z" transform="translate(-475.604 -205.431)"/><path class="e" d="M760.356,366.275s-13.1-3.572-12.7,1.985,2.381,12.305,8.732,13.893,8.336-7.145,8.336-7.145S765.516,367.069,760.356,366.275Z" transform="translate(-475.595 -253.43)"/><path class="c" d="M875.662,407.264s-.794,18.259-5.557,20.244l11.511,2.778s5.557-19.053,4.763-19.847S875.662,407.264,875.662,407.264Z" transform="translate(-541.681 -276.16)"/><path class="f" d="M1.048,0H8.486A1.048,1.048,0,0,1,9.534,1.048V19.979a1.28,1.28,0,0,1-1.28,1.28H1.28A1.28,1.28,0,0,1,0,19.979V1.048A1.048,1.048,0,0,1,1.048,0Z" transform="translate(264.935 94.354) rotate(-23.598)"/><path class="g" d="M1.048,0H8.486A1.048,1.048,0,0,1,9.534,1.048V19.979a1.28,1.28,0,0,1-1.28,1.28H1.28A1.28,1.28,0,0,1,0,19.979V1.048A1.048,1.048,0,0,1,1.048,0Z" transform="translate(264.935 94.354) rotate(-23.598)"/><path class="f" d="M1.048,0H7.533A1.048,1.048,0,0,1,8.58,1.048V19.012a1.28,1.28,0,0,1-1.28,1.28H1.28A1.28,1.28,0,0,1,0,19.012V1.048A1.048,1.048,0,0,1,1.048,0Z" transform="translate(265.323 95.239) rotate(-23.598)"/><ellipse class="h" cx="1.907" cy="1.933" rx="1.907" ry="1.933" transform="translate(268.454 99.064) rotate(-23.598)"/><path class="g" d="M875.848,267.9l2.58-3.771s9.526,14.687,8.732,24.61-1.588,10.32-1.588,11.908-1.985,1.588,0,3.573,4.763,4.763,3.176,6.351-2.779,1.588-2.382,3.572a26.248,26.248,0,0,1,.4,4.366s-3.374,6.549-4.565,6.549-12.5,10.519-12.5,9.328,1.191-9.526,1.191-10.717.4-5.16,1.191-6.351.794-.794,0-1.985-.794,0-.794-1.191.4-2.779-.794-3.176-2.382,0-1.588-1.985,0-3.572-.4-3.572-2.382-.4-1.191-1.588-2.381-24.213-2.381-24.213S865.527,273.854,875.848,267.9Z" transform="translate(-538.889 -198.917)"/><path class="d" d="M875.29,253.782l6.748,3.176s9.526,14.687,8.733,24.61-1.588,10.32-1.588,11.908-1.985,1.588,0,3.572,4.763,4.763,3.176,6.351-2.779,1.588-2.382,3.572a26.248,26.248,0,0,1,.4,4.366s-3.572,19.053-4.763,19.053-12.305-1.985-12.305-3.175,1.191-9.526,1.191-10.717.4-5.16,1.191-6.351.794-.794,0-1.985-.794,0-.794-1.191.4-2.779-.794-3.175-2.382,0-1.588-1.985,0-3.572-.4-3.572-2.382-.4-1.191-1.588-2.381-24.213-2.381-24.213S864.97,259.736,875.29,253.782Z" transform="translate(-540.515 -193.333)"/><path class="c" d="M746.048,355.535a1.664,1.664,0,0,1-1.914-.864c-1.824-3.647-6.766-14.344-2.159-14.673,4.25-.3,8.036,7.984,9.582,11.9a1.891,1.891,0,0,1-1.278,2.524Z" transform="translate(-471.504 -239.855)"/><circle class="c" cx="14.687" cy="14.687" r="14.687" transform="translate(282.777 20.358)"/><path class="f" d="M778.807,165.167a28.931,28.931,0,0,1-5.646,1.333c-1.446.226-3.139.341-4.156-.712-1-1.034-.836-2.758-.156-4.024a38.516,38.516,0,0,1,2.588-3.439c1.286-1.858,2.045-4.321,4.1-5.257a7.547,7.547,0,0,1,2.67-.5c5.337-.34,10.892-.647,15.834,1.4a11.656,11.656,0,0,1,4.779,3.4,12.694,12.694,0,0,1,1.91,3.7,24.174,24.174,0,0,1-4.349,23.213c-1.8-1.623-1.018-5.373-3.3-6.2-.747-.271-1.593-.083-2.359-.3-2.407-.675-2.286-4.395-4.29-5.889a3.826,3.826,0,0,1-1.141-.938,2.333,2.333,0,0,1-.222-1.183c-.015-1.394.64-4.933-.689-5.888C783.032,162.917,780.107,164.7,778.807,165.167Z" transform="translate(-486.739 -138.581)"/><path class="a" d="M746.546,678.435s-1.08-23.221-23.213-20.522" transform="translate(-462.475 -411.306)"/><path class="a" d="M976.485,560.3s1.08-23.221,23.212-20.522" transform="translate(-599.089 -347.557)"/><path class="a" d="M975.131,692.326c-.028-.245-2.657-24.6,7.988-37.483a21.665,21.665,0,0,1,15.646-7.916l.071.918a20.779,20.779,0,0,0-15.006,7.583c-10.4,12.584-7.812,36.553-7.785,36.794Z" transform="translate(-598.192 -405.495)"/><path class="a" d="M68.348,169.893H246.341v58.432H239.6v15.282l-15.282-15.282H68.348Z" transform="translate(-36.885 -91.684)"/><rect class="i" width="168.105" height="46.746" transform="translate(36.408 83.899)"/><rect class="e" width="80.938" height="2.456" transform="translate(49.926 97.547)"/><rect class="a" width="141.069" height="2.456" transform="translate(49.926 106.044)"/><rect class="a" width="140.931" height="2.456" transform="translate(49.926 114.541)"/><path class="a" d="M177.993,339.785H0v58.433H6.742V413.5l15.282-15.282H177.993Z" transform="translate(0 -183.367)"/><rect class="i" width="168.105" height="46.746" transform="translate(4.944 162.109)"/><rect class="e" width="80.938" height="2.456" transform="translate(19.811 176.206)"/><rect class="a" width="141.069" height="2.456" transform="translate(19.811 184.703)"/><rect class="a" width="140.931" height="2.456" transform="translate(19.811 193.2)"/><path class="a" d="M177.993,0H0V58.432H6.742V73.715L22.024,58.432H177.993Z"/><rect class="i" width="168.105" height="46.746" transform="translate(4.944 5.69)"/><rect class="e" width="80.938" height="2.456" transform="translate(19.811 19.787)"/><rect class="a" width="141.069" height="2.456" transform="translate(19.811 28.284)"/><rect class="a" width="140.931" height="2.456" transform="translate(19.811 36.781)"/><rect class="a" width="0.921" height="50.638" transform="translate(283.252 240.104)"/><rect class="a" width="0.921" height="101.736" transform="translate(376.242 189.006)"/><circle class="j" cx="7.558" cy="7.558" r="7.558" transform="translate(276.515 226.633)"/><circle class="j" cx="7.558" cy="7.558" r="7.558" transform="translate(369.838 174.412)"/><circle cx="7.558" cy="7.558" r="7.558" transform="translate(393.051 234.333)"/></svg>