<svg xmlns="http://www.w3.org/2000/svg" width="206.166" height="151.555" viewBox="0 0 206.166 151.555"><defs><style>.a{fill:#e6e6e6;}.b{fill:#707070;}.c{fill:#ffb9b9;}.d,.e{fill:#6c63ff;}.d{opacity:0.98;}.f{fill:#2f2e41;}.g{opacity:0.1;}.h{fill:#f2f2f2;}.i{fill:#fff;}.j{opacity:0.86;}</style></defs><ellipse class="a" cx="33.581" cy="4.336" rx="33.581" ry="4.336" transform="translate(135.868 142.882)"/><path class="b" d="M893.386,680.279s1.8,6.184,3.007,7.78,2.206,4.189,1.6,4.588-1.8,5.187-.2,5.386,5.213-5.187,5.413-6.982,1-8.179,1-8.179,1.4-5.586-.8-5.985-5.614-.6-5.614-.6Z" transform="translate(-722.084 -548.158)"/><path class="b" d="M843,721.989s-2.606,6.783-3.208,7.182-2.807,3.99,1.6,3.99a16.517,16.517,0,0,0,6.817-1.2l1.4-1.6s0-4.189-.4-4.788,0-3.591,0-3.591Z" transform="translate(-680.123 -583.284)"/><path d="M775.306,444.225s-3.208,21.545-.4,28.527,5.614,8.977,5.614,8.977l21.252,19.75s6.616-3.391,6.015-5.586c0,0-1.4-.8-1.6-1.4s-2.807-.8-2.807-.8-1.2-1.4-1.2-2.194-10.426-14.962-13.834-15.959c0,0-1.8-2.194-1.6-2.593s-.6-1.8-.6-1.8l2.005-7.78,12.631-1.995s5.213-18.353.8-19.75S775.306,444.225,775.306,444.225Z" transform="translate(-630.269 -367.563)"/><path d="M848.453,514.184l.4,3.192s0,8.379-.4,9.177a2.783,2.783,0,0,0,0,2.793c.6.8,1.6,2.793,1.2,3.591s.8,23.341-.8,24.936a3.346,3.346,0,0,0-.8,3.79c.2.2-.2,1-.2,1s-8.22,1.4-7.619,0,.6-2.194,1-2.594,0-1,0-1,.6-6.384,0-6.783-2.406-19.55-2.406-19.75-.6-.6-.6-1.4,0-3.391-1-3.79-.8-10.174-.8-10.174Z" transform="translate(-678.354 -423.557)"/><path class="c" d="M794.566,206.358s.8,5.985,3.208,7.182,4.01,1.8,4.01,1.8l-2,6.982-.8,5.985h-9.223l-5.012-3.99,1.6-6.583.8-1.2s1-4.389.2-5.785S794.566,206.358,794.566,206.358Z" transform="translate(-638.702 -186.95)"/><path class="d" d="M768.717,246.769l1.4,2.593s1-3.591,2.406-4.189,4.812-1.6,4.812-2.394-.2-2.793.6-2.793,8.621,2.394,9.824,3.192a3.146,3.146,0,0,1,1.4,1.6l-2.205,22.942s3.208,10.773,2.205,14.962-1.8,4.788-4.21,5.386-1-1.4-8.02.6a36.854,36.854,0,0,1-13.032,1.4,5.628,5.628,0,0,0-3.007,1c-.4.2-.2-1,1.2-2.793s.8-4.788.8-4.788-1.6-5.187-.6-7.182,2.406-4.588,1.2-5.386-2.807-6.783-2.807-6.783l-4.411-15.56,9.022-6.184s-.4,2.793,1,3.391S768.717,246.769,768.717,246.769Z" transform="translate(-616.864 -212.798)"/><path class="d" d="M750.872,276.2h-1.2s-2.005,3.391-2.005,5.785,1,15.959,1,15.959l5.814,5.985,1.4-4.588.4-10.174Z" transform="translate(-610.246 -240.634)"/><path class="e" d="M754.066,365.713s-6.616-1.8-6.416,1,1.2,6.184,4.411,6.982,4.211-3.591,4.211-3.591S756.672,366.112,754.066,365.713Z" transform="translate(-610.232 -309)"/><path class="c" d="M872.912,407.264s-.4,9.177-2.807,10.174l5.814,1.4s2.807-9.576,2.406-9.974S872.912,407.264,872.912,407.264Z" transform="translate(-704.217 -341.374)"/><path class="f" d="M.528,0,4.282.007a.53.53,0,0,1,.53.528l.018,9.522a.642.642,0,0,1-.645.642l-3.52-.006a.648.648,0,0,1-.647-.645L0,.526A.525.525,0,0,1,.528,0Z" transform="translate(133.821 47.42) rotate(-23.598)"/><path class="g" d="M.528,0,4.282.007a.53.53,0,0,1,.53.528l.018,9.522a.642.642,0,0,1-.645.642l-3.52-.006a.648.648,0,0,1-.647-.645L0,.526A.525.525,0,0,1,.528,0Z" transform="translate(133.821 47.42) rotate(-23.598)"/><path class="f" d="M.528,0,3.8.006a.53.53,0,0,1,.53.528L4.347,9.57a.642.642,0,0,1-.645.642L.664,10.207a.648.648,0,0,1-.647-.645L0,.526A.525.525,0,0,1,.528,0Z" transform="translate(134.016 47.865) rotate(-23.598)"/><path class="h" d="M.963,0a.973.973,0,0,1,0,1.945A.973.973,0,0,1,.963,0Z" transform="translate(135.598 49.787) rotate(-23.598)"/><path class="g" d="M870.446,266.024l1.3-1.9s4.812,7.381,4.411,12.368a55.649,55.649,0,0,1-.8,5.985c0,.8-1,.8,0,1.8s2.406,2.394,1.6,3.192-1.4.8-1.2,1.8a13.1,13.1,0,0,1,.2,2.194s-1.7,3.292-2.306,3.292-6.316,5.287-6.316,4.688.6-4.788.6-5.386a8.992,8.992,0,0,1,.6-3.192c.4-.6.4-.4,0-1s-.4,0-.4-.6.2-1.4-.4-1.6-1.2,0-.8-1,0-1.8-.2-1.8-1.2-.2-.6-.8-1.2-12.169-1.2-12.169S865.233,269.016,870.446,266.024Z" transform="translate(-700.246 -231.354)"/><path class="d" d="M871.655,253.782l3.408,1.6s4.812,7.381,4.411,12.368a55.643,55.643,0,0,1-.8,5.985c0,.8-1,.8,0,1.8s2.406,2.394,1.6,3.192-1.4.8-1.2,1.8a13.117,13.117,0,0,1,.2,2.194s-1.8,9.576-2.406,9.576-6.215-1-6.215-1.6.6-4.788.6-5.386a9,9,0,0,1,.6-3.192c.4-.6.4-.4,0-1s-.4,0-.4-.6.2-1.4-.4-1.6-1.2,0-.8-1,0-1.8-.2-1.8-1.2-.2-.6-.8-1.2-12.169-1.2-12.169S866.442,256.774,871.655,253.782Z" transform="translate(-702.558 -223.402)"/><path class="c" d="M743.087,347.8a.842.842,0,0,1-.966-.434c-.921-1.833-3.418-7.209-1.091-7.374,2.147-.153,4.059,4.013,4.84,5.98a.949.949,0,0,1-.646,1.269Z" transform="translate(-604.414 -289.665)"/><ellipse class="c" cx="7.418" cy="7.381" rx="7.418" ry="7.381" transform="translate(142.832 10.232)"/><path class="f" d="M773.606,158.779a14.671,14.671,0,0,1-2.852.67,2.378,2.378,0,0,1-2.1-.358,1.761,1.761,0,0,1-.079-2.022,19.366,19.366,0,0,1,1.307-1.728c.65-.934,1.033-2.172,2.072-2.642a3.827,3.827,0,0,1,1.348-.251c2.7-.171,5.5-.325,8,.7a5.888,5.888,0,0,1,2.414,1.709,6.374,6.374,0,0,1,.965,1.862,12.1,12.1,0,0,1-2.2,11.666c-.91-.816-.514-2.7-1.665-3.116-.377-.136-.8-.041-1.191-.149-1.216-.339-1.154-2.209-2.167-2.96a1.932,1.932,0,0,1-.576-.471,1.169,1.169,0,0,1-.112-.594c-.007-.7.323-2.479-.348-2.959S774.262,158.543,773.606,158.779Z" transform="translate(-626.081 -145.417)"/><path class="a" d="M735.058,668.118s-.545-11.67-11.725-10.314" transform="translate(-591.573 -533.865)"/><path class="a" d="M976.485,549.988s.545-11.67,11.725-10.314" transform="translate(-785.861 -443.065)"/><path class="a" d="M974.979,669.743c-.014-.123-1.342-12.361,4.035-18.838a10.962,10.962,0,0,1,7.9-3.979l.036.461a10.513,10.513,0,0,0-7.58,3.811c-5.251,6.324-3.946,18.371-3.932,18.492Z" transform="translate(-784.586 -525.589)"/><path class="a" d="M68.348,169.893h89.905V199.26h-3.405v7.68l-7.719-7.68H68.348Z" transform="translate(-52.456 -130.587)"/><rect class="i" width="84.91" height="23.493" transform="translate(18.39 42.166)"/><rect class="e" width="40.882" height="1.234" transform="translate(25.218 49.025)"/><rect class="a" width="71.254" height="1.234" transform="translate(25.218 53.295)"/><rect class="a" width="71.184" height="1.234" transform="translate(25.218 57.566)"/><path class="a" d="M89.905,339.785H0v29.367H3.406v7.68l7.719-7.68H89.905Z" transform="translate(0 -261.173)"/><rect class="i" width="84.91" height="23.493" transform="translate(2.497 81.472)"/><rect class="e" width="40.882" height="1.234" transform="translate(10.006 88.557)"/><rect class="a" width="71.254" height="1.234" transform="translate(10.006 92.828)"/><rect class="a" width="71.184" height="1.234" transform="translate(10.006 97.098)"/><path class="a" d="M89.905,0H0V29.367H3.406v7.681l7.719-7.681H89.905Z"/><rect class="i" width="84.91" height="23.493" transform="translate(2.497 2.86)"/><rect class="e" width="40.882" height="1.234" transform="translate(10.006 9.945)"/><rect class="a" width="71.254" height="1.234" transform="translate(10.006 14.215)"/><rect class="a" width="71.184" height="1.234" transform="translate(10.006 18.486)"/><rect class="a" width="0.465" height="25.45" transform="translate(143.072 120.671)"/><rect class="a" width="0.465" height="51.13" transform="translate(190.041 94.99)"/><ellipse class="j" cx="3.817" cy="3.798" rx="3.817" ry="3.798" transform="translate(139.668 113.901)"/><ellipse class="j" cx="3.817" cy="3.798" rx="3.817" ry="3.798" transform="translate(186.806 87.655)"/><ellipse cx="3.817" cy="3.798" rx="3.817" ry="3.798" transform="translate(198.531 117.77)"/></svg>